<svg width="125" height="46" viewBox="0 0 125 46" fill="none" xmlns="http://www.w3.org/2000/svg">
<g clip-path="url(#clip0_3_20)">
<path d="M64.5351 15.2364L70.4821 14.8555C70.6178 15.819 70.8665 16.536 71.2735 17.0513C71.9293 17.858 72.8338 18.2613 74.0322 18.2613C74.9141 18.2613 75.615 18.0596 76.0899 17.6339C76.5421 17.2978 76.8135 16.7601 76.8135 16.1999C76.8135 15.6622 76.5648 15.1468 76.1351 14.8107C75.6829 14.4074 74.6201 14.0041 72.9468 13.6456C70.2107 13.0406 68.2435 12.234 67.0903 11.2033C65.937 10.2398 65.2813 8.82825 65.3265 7.32703C65.3265 6.29634 65.6431 5.26566 66.231 4.41422C66.9094 3.45075 67.8365 2.68894 68.9445 2.26322C70.1429 1.74788 71.8162 1.479 73.9191 1.479C76.4969 1.479 78.4642 1.94953 79.8209 2.913C81.1776 3.85406 81.9917 5.37769 82.2404 7.46147L76.3613 7.79756C76.203 6.90131 75.8864 6.25153 75.3663 5.82581C74.8462 5.4001 74.1679 5.19844 73.286 5.19844C72.5624 5.19844 72.0197 5.35528 71.6579 5.64656C71.3187 5.91544 71.0926 6.31875 71.1152 6.76688C71.1152 7.10297 71.2961 7.41666 71.5675 7.61831C71.8614 7.88719 72.5624 8.13366 73.6704 8.35772C76.4065 8.94028 78.3511 9.52284 79.5496 10.1278C80.748 10.7328 81.6073 11.4722 82.1274 12.346C82.67 13.2423 82.9414 14.273 82.9188 15.3261C82.9188 16.5808 82.557 17.8356 81.8334 18.8886C81.0872 19.9866 80.047 20.838 78.826 21.3533C77.5371 21.9135 75.909 22.2048 73.9644 22.2048C70.5273 22.2048 68.153 21.555 66.8189 20.233C65.4848 18.9111 64.6934 17.253 64.5351 15.2364ZM1.42457 21.8687V1.8375H11.8488C13.7708 1.8375 15.2632 1.99435 16.2808 2.33044C17.2757 2.64413 18.1576 3.29391 18.7455 4.16775C19.4012 5.13122 19.7178 6.25153 19.6952 7.41666C19.763 9.3884 18.7455 11.2705 17.0043 12.2564C16.326 12.6373 15.5798 12.9062 14.811 13.0406C15.3763 13.1975 15.9416 13.4663 16.439 13.78C16.8234 14.0937 17.14 14.4522 17.434 14.8331C17.7732 15.214 18.0671 15.6397 18.3158 16.0879L21.3459 21.8911H14.2457L10.8991 15.7294C10.4694 14.9452 10.1076 14.4298 9.76845 14.1833C9.31621 13.8697 8.77352 13.7128 8.23083 13.7128H7.68813V21.8463H1.42457V21.8687ZM7.68813 9.94856H10.3338C10.8991 9.90375 11.4418 9.81412 11.9844 9.67969C12.3915 9.61247 12.7533 9.38841 13.002 9.05231C13.6125 8.24569 13.5221 7.10297 12.7759 6.40838C12.3688 6.07228 11.5774 5.89303 10.4468 5.89303H7.68813V9.94856ZM0 39.0319L5.947 38.6509C6.08267 39.6144 6.3314 40.3314 6.73842 40.8468C7.37156 41.6534 8.29866 42.0791 9.49711 42.0791C10.379 42.0791 11.08 41.8774 11.5548 41.4517C12.0071 41.0932 12.2784 40.5779 12.2784 40.0177C12.2784 39.48 12.0297 38.9646 11.6 38.6285C11.1478 38.2252 10.085 37.8219 8.38911 37.4634C5.65304 36.8584 3.68578 36.0518 2.53256 35.0211C1.37934 34.0577 0.723589 32.6461 0.768813 31.1449C0.768813 30.1142 1.08538 29.0835 1.6733 28.232C2.35166 27.2686 3.27876 26.5068 4.38676 26.0811C5.5852 25.5657 7.2585 25.2968 9.36143 25.2968C11.9392 25.2968 13.9065 25.7674 15.2632 26.7308C16.6199 27.6943 17.4114 29.1955 17.6601 31.2793L11.7809 31.6154C11.6226 30.7191 11.3061 30.0694 10.786 29.6436C10.2885 29.2179 9.58755 29.0163 8.70568 29.0387C7.98209 29.0387 7.4394 29.1955 7.0776 29.5092C6.71581 29.7781 6.5123 30.1814 6.53491 30.6295C6.53491 30.9656 6.71581 31.2793 6.98716 31.481C7.28111 31.7498 7.98209 31.9963 9.09009 32.2204C11.8262 32.8029 13.7708 33.3855 14.9692 33.9904C16.1677 34.5954 17.027 35.3348 17.547 36.2087C18.0897 37.1049 18.3611 38.1356 18.3611 39.1663C18.3611 40.421 17.9767 41.6534 17.2757 42.7065C16.5295 43.8044 15.4893 44.6558 14.2683 45.1712C12.9794 45.7313 11.3513 46.0226 9.40666 46.0226C5.96961 46.0226 3.59533 45.3728 2.26122 44.0509C0.927098 42.7065 0.180897 41.0484 0 39.0319Z" fill="#4A2326"/>
<path d="M30.0742 37.4635L35.5464 39.0991C35.2524 40.4659 34.6419 41.7655 33.8052 42.9082C33.0364 43.9165 32.0189 44.7007 30.8656 45.216C29.6898 45.7314 28.1974 46.0002 26.3884 46.0002C24.1951 46.0002 22.3861 45.6866 21.0067 45.0592C19.6048 44.4318 18.4063 43.3115 17.3888 41.7206C16.3712 40.1298 15.8738 38.0908 15.8738 35.6037C15.8738 32.2876 16.7557 29.7333 18.542 27.9632C20.3284 26.1931 22.8383 25.2969 26.0945 25.2969C28.6496 25.2969 30.6395 25.8122 32.1093 26.8205C33.5565 27.8512 34.6419 29.4196 35.3655 31.5258L29.8481 32.7357C29.7124 32.2652 29.5089 31.7947 29.2376 31.3914C28.8984 30.9208 28.4688 30.5623 27.9487 30.2935C27.4286 30.0246 26.8407 29.9126 26.2528 29.9126C24.8282 29.9126 23.7428 30.4727 22.9966 31.6154C22.4313 32.4445 22.1373 33.7664 22.1373 35.5589C22.1373 37.7771 22.4765 39.3008 23.1549 40.1298C23.8333 40.9588 24.783 41.3621 26.0266 41.3621C27.2251 41.3621 28.1296 41.0261 28.7401 40.3763C29.3506 39.6817 29.8029 38.7182 30.0742 37.4635ZM42.8501 25.633H49.091V32.6461H55.9199V25.633H62.2061V45.6641H55.9199V37.5531H49.091V45.6641H42.8501V25.633Z" fill="#4A2326"/>
<path d="M61.3468 35.6485C61.3468 32.3772 62.2739 29.8229 64.1055 28.008C65.9371 26.1931 68.5149 25.2744 71.7936 25.2744C75.1628 25.2744 77.7406 26.1707 79.5722 27.9632C81.4038 29.7557 82.3083 32.2652 82.3083 35.4917C82.3083 37.8443 81.9013 39.7488 81.1098 41.2501C80.341 42.7289 79.1426 43.9388 77.6728 44.7454C76.1578 45.5745 74.281 46.0002 72.0424 46.0002C69.7585 46.0002 67.8817 45.6417 66.3893 44.9247C64.8517 44.1629 63.5854 42.9753 62.7488 41.5189C61.8217 39.9505 61.3468 38.0012 61.3468 35.6485ZM67.5878 35.6709C67.5878 37.6875 67.9722 39.1439 68.7184 40.0401C69.4646 40.914 70.5047 41.3621 71.8162 41.3621C73.1504 41.3621 74.1905 40.9364 74.9367 40.0625C75.6829 39.1887 76.0447 37.6427 76.0447 35.402C76.0447 33.5199 75.6603 32.1307 74.8915 31.2793C74.1227 30.4054 73.0825 29.9797 71.771 29.9797C70.6178 29.9349 69.5098 30.4278 68.741 31.3017C67.9722 32.1755 67.5878 33.6319 67.5878 35.6709ZM88.7075 35.6485C88.7075 32.3772 89.6346 29.8229 91.4662 28.008C93.2978 26.1931 95.8756 25.2744 99.1543 25.2744C102.524 25.2744 105.124 26.1707 106.933 27.9632C108.742 29.7557 109.669 32.2652 109.669 35.4917C109.669 37.8443 109.262 39.7488 108.471 41.2501C107.702 42.7289 106.503 43.9388 105.033 44.7454C103.518 45.5745 101.642 46.0002 99.4031 46.0002C97.1192 46.0002 95.2424 45.6417 93.75 44.9247C92.2124 44.1629 90.9461 42.9753 90.1095 41.5189C89.1824 39.9505 88.7075 38.0012 88.7075 35.6485ZM94.9485 35.6709C94.9485 37.6875 95.3329 39.1439 96.0791 40.0401C96.8253 40.914 97.8654 41.3621 99.1769 41.3621C100.511 41.3621 101.551 40.9364 102.297 40.0625C103.044 39.1887 103.405 37.6427 103.405 35.402C103.405 33.5199 103.021 32.1307 102.252 31.2793C101.483 30.4054 100.443 29.9797 99.1317 29.9797C97.9785 29.9349 96.8479 30.4278 96.1017 31.3017C95.3329 32.1755 94.9485 33.6319 94.9485 35.6709Z" fill="#4A2326"/>
<path d="M109.013 25.6328H115.254V40.7346H125V45.664H108.991V25.6328H109.013Z" fill="#4A2326"/>
<mask id="mask0_3_20" style="mask-type:luminance" maskUnits="userSpaceOnUse" x="81" y="2" width="28" height="26">
<path d="M102.134 24.4766C108.418 19.7847 110.355 11.8313 106.462 6.71203C102.569 1.5928 94.3191 1.24635 88.0358 5.93822C81.7524 10.6301 79.8149 18.5835 83.7081 23.7028C87.6013 28.822 95.851 29.1685 102.134 24.4766Z" fill="white"/>
</mask>
<g mask="url(#mask0_3_20)">
<mask id="mask1_3_20" style="mask-type:luminance" maskUnits="userSpaceOnUse" x="67" y="-12" width="56" height="55">
<path d="M67.6838 12.6685L100.153 -11.5771L122.621 17.9662L90.1517 42.2117L67.6838 12.6685Z" fill="white"/>
</mask>
<g mask="url(#mask1_3_20)">
<mask id="mask2_3_20" style="mask-type:luminance" maskUnits="userSpaceOnUse" x="81" y="2" width="28" height="26">
<path d="M102.134 24.4766C108.418 19.7847 110.355 11.8313 106.462 6.71203C102.569 1.5928 94.3191 1.24635 88.0358 5.93822C81.7524 10.6301 79.8149 18.5835 83.7081 23.7028C87.6013 28.822 95.851 29.1685 102.134 24.4766Z" fill="white"/>
</mask>
<g mask="url(#mask2_3_20)">
<mask id="mask3_3_20" style="mask-type:luminance" maskUnits="userSpaceOnUse" x="80" y="-2" width="31" height="35">
<path d="M80.0756 25.6738L87.8945 -1.41837L110.463 5.01034L102.644 32.1025L80.0756 25.6738Z" fill="white"/>
</mask>
<g mask="url(#mask3_3_20)">
<path d="M102.145 24.4877C108.423 19.802 110.35 11.8485 106.451 6.7231C102.552 1.59769 94.302 1.24124 88.0248 5.92693C81.7475 10.6126 79.8198 18.5661 83.7191 23.6915C87.6183 28.8169 95.868 29.1733 102.145 24.4877Z" stroke="#4A2326" stroke-width="4" stroke-miterlimit="10"/>
</g>
<mask id="mask4_3_20" style="mask-type:luminance" maskUnits="userSpaceOnUse" x="79" y="-2" width="32" height="35">
<path d="M79.9653 25.7603L87.7847 -1.33181L110.353 5.0973L102.533 32.1894L79.9653 25.7603Z" fill="white"/>
</mask>
<g mask="url(#mask4_3_20)">
<path d="M76.7253 14.6187L99.4395 -2.33587L113.573 16.243L90.8591 33.1975L76.7253 14.6187Z" stroke="#4A2326" stroke-width="4" stroke-miterlimit="10"/>
</g>
<path d="M102.134 24.4766C108.418 19.7847 110.355 11.8313 106.462 6.71203C102.569 1.5928 94.3191 1.24635 88.0358 5.93822C81.7524 10.6301 79.8149 18.5835 83.7081 23.7028C87.6013 28.822 95.851 29.1685 102.134 24.4766Z" stroke="#4A2326" stroke-width="4" stroke-miterlimit="10"/>
<mask id="mask5_3_20" style="mask-type:luminance" maskUnits="userSpaceOnUse" x="80" y="-2" width="31" height="35">
<path d="M80.0756 25.6738L87.8945 -1.41837L110.463 5.01034L102.644 32.1025L80.0756 25.6738Z" fill="white"/>
</mask>
<g mask="url(#mask5_3_20)">
<path d="M102.145 24.4877C108.423 19.802 110.35 11.8485 106.451 6.7231C102.552 1.59769 94.302 1.24124 88.0248 5.92693C81.7475 10.6126 79.8198 18.5661 83.7191 23.6915C87.6183 28.8169 95.868 29.1733 102.145 24.4877Z" stroke="#4A2326" stroke-width="4" stroke-miterlimit="10"/>
</g>
<mask id="mask6_3_20" style="mask-type:luminance" maskUnits="userSpaceOnUse" x="79" y="-2" width="32" height="35">
<path d="M79.9653 25.7603L87.7847 -1.33181L110.353 5.0973L102.533 32.1894L79.9653 25.7603Z" fill="white"/>
</mask>
<g mask="url(#mask6_3_20)">
<path d="M76.7253 14.6187L99.4395 -2.33587L113.573 16.243L90.8591 33.1975L76.7253 14.6187Z" stroke="#4A2326" stroke-width="4" stroke-miterlimit="10"/>
</g>
<path d="M67.6838 12.6685L100.153 -11.5771L122.621 17.9662L90.1517 42.2117L67.6838 12.6685Z" stroke="#4A2326" stroke-width="4" stroke-miterlimit="10"/>
</g>
<path d="M102.134 24.4766C108.418 19.7847 110.355 11.8313 106.462 6.71203C102.569 1.5928 94.3191 1.24635 88.0358 5.93822C81.7524 10.6301 79.8149 18.5835 83.7081 23.7028C87.6013 28.822 95.851 29.1685 102.134 24.4766Z" stroke="#4A2326" stroke-width="4" stroke-miterlimit="10"/>
<path d="M88.7301 13.7349L90.9914 12.1665L93.7727 16.0876C94.2475 16.7149 94.6093 17.3871 94.8807 18.1265C95.0389 18.6867 94.9937 19.2917 94.7676 19.8294C94.4736 20.5016 93.9988 21.0617 93.3656 21.4651C92.6194 21.9804 91.9863 22.2717 91.4436 22.3613C90.9235 22.4509 90.3808 22.3613 89.8834 22.1372C89.3407 21.8684 88.8658 21.4875 88.504 20.9945L90.4487 19.202C90.607 19.4485 90.8105 19.6726 91.0366 19.8518C91.1949 19.9638 91.3758 20.0311 91.5793 20.0311C91.7376 20.0311 91.8959 19.9638 92.0089 19.8742C92.235 19.7398 92.3933 19.4709 92.3707 19.202C92.3029 18.8211 92.1446 18.4402 91.8959 18.1489L88.7301 13.7349ZM95.5138 16.222L97.5715 14.6088C97.7976 14.8776 98.0916 15.0793 98.4082 15.1913C98.8604 15.3258 99.3353 15.2361 99.7197 14.9448C99.991 14.7656 100.217 14.5191 100.308 14.2054C100.443 13.8021 100.217 13.354 99.8101 13.2196C99.7423 13.1972 99.6744 13.1748 99.6066 13.1748C99.3353 13.1523 98.8604 13.2644 98.1594 13.5557C97.0062 14.0262 96.1017 14.2054 95.4233 14.1382C94.7676 14.071 94.1571 13.7349 93.7953 13.1748C93.5239 12.7938 93.3883 12.3457 93.3656 11.8976C93.3656 11.3823 93.5013 10.8669 93.7953 10.4412C94.2249 9.83622 94.745 9.32088 95.3781 8.91757C96.3278 8.26779 97.1645 7.9541 97.8881 7.9541C98.6117 7.9541 99.29 8.29019 99.9232 8.98479L97.8881 10.5756C97.4811 10.0603 96.7122 9.94826 96.1922 10.3516L96.1243 10.4188C95.8982 10.5532 95.7399 10.7549 95.6495 11.0013C95.5816 11.1806 95.6269 11.3823 95.7399 11.5391C95.8304 11.6511 95.966 11.7408 96.1243 11.7408C96.3052 11.7632 96.6218 11.6735 97.074 11.4719C98.2046 11.0013 99.0639 10.7325 99.6518 10.6428C100.149 10.5532 100.669 10.598 101.144 10.7997C101.574 10.9789 101.936 11.2926 102.184 11.6735C102.501 12.1217 102.682 12.6594 102.704 13.2196C102.727 13.8021 102.569 14.3623 102.252 14.8552C101.845 15.4602 101.325 15.9755 100.715 16.3788C99.4709 17.2303 98.4534 17.5888 97.6393 17.4543C96.7575 17.3199 96.0339 16.8718 95.5138 16.222Z" fill="#4A2326"/>
</g>
</g>
</g>
<defs>
<clipPath id="clip0_3_20">
<rect width="125" height="46" fill="white"/>
</clipPath>
</defs>
</svg>
