<svg width="16" height="26" viewBox="0 0 16 26" fill="none" xmlns="http://www.w3.org/2000/svg">
<path d="M0.611838 25.4277C0.220078 25.0611 -3.34246e-07 24.5641 -3.34246e-07 24.0458C-3.34246e-07 23.5274 0.220078 23.0304 0.611838 22.6638L10.9559 12.9882L0.611838 3.3126C0.231181 2.94394 0.0205503 2.45019 0.0253115 1.93768C0.0300727 1.42517 0.249845 0.934919 0.637293 0.572508C1.02474 0.210096 1.54887 0.00452849 2.09678 7.49363e-05C2.6447 -0.00437861 3.17256 0.192641 3.56668 0.548699L15.3882 11.6063C15.7799 11.9728 16 12.4699 16 12.9882C16 13.5065 15.7799 14.0036 15.3882 14.3701L3.56668 25.4277C3.17481 25.7941 2.64338 26 2.08926 26C1.53515 26 1.00372 25.7941 0.611838 25.4277Z" fill="#EFEEEC"/>
</svg>
