<svg width="16" height="26" viewBox="0 0 16 26" fill="none" xmlns="http://www.w3.org/2000/svg">
<path d="M15.3882 0.5723C15.7799 0.938854 16 1.43594 16 1.95425C16 2.47256 15.7799 2.96964 15.3882 3.3362L5.04411 13.0118L15.3882 22.6874C15.7688 23.0561 15.9794 23.5498 15.9747 24.0623C15.9699 24.5748 15.7502 25.0651 15.3627 25.4275C14.9753 25.7899 14.4511 25.9955 13.9032 25.9999C13.3553 26.0044 12.8274 25.8074 12.4333 25.4513L0.611838 14.3937C0.220078 14.0272 0 13.5301 0 13.0118C0 12.4935 0.220078 11.9964 0.611838 11.6299L12.4333 0.5723C12.8252 0.205857 13.3566 0 13.9107 0C14.4649 0 14.9963 0.205857 15.3882 0.5723Z" fill="#EFEEEC"/>
</svg>
