<svg width="40" height="40" viewBox="0 0 40 40" fill="none" xmlns="http://www.w3.org/2000/svg">
<g clip-path="url(#clip0_13_51)">
<path d="M33.8616 7.28338C31.2684 6.09311 28.5316 5.24435 25.7199 4.75838C25.6943 4.75338 25.6677 4.75666 25.6441 4.76775C25.6204 4.77883 25.6009 4.79714 25.5883 4.82004C25.2383 5.44504 24.8483 6.26004 24.5749 6.90338C21.544 6.44302 18.4609 6.44302 15.4299 6.90338C15.1258 6.19055 14.7825 5.49504 14.4016 4.82004C14.3885 4.79766 14.3689 4.77978 14.3454 4.76877C14.3218 4.75776 14.2956 4.75413 14.2699 4.75838C11.458 5.24334 8.72116 6.09214 6.12828 7.28338C6.10633 7.29259 6.08772 7.30829 6.07495 7.32838C0.88828 15.0767 -0.533387 22.6334 0.164947 30.095C0.166643 30.1136 0.1721 30.1315 0.180984 30.1479C0.189868 30.1642 0.201991 30.1786 0.216613 30.19C3.23594 32.4271 6.61346 34.1347 10.2049 35.24C10.2303 35.2474 10.2572 35.2468 10.2822 35.2385C10.3072 35.2302 10.3291 35.2144 10.3449 35.1934C11.1171 34.1442 11.8005 33.0326 12.3883 31.87C12.3965 31.8541 12.4012 31.8367 12.4022 31.8188C12.4031 31.8009 12.4003 31.783 12.3938 31.7664C12.3873 31.7497 12.3774 31.7345 12.3647 31.7219C12.352 31.7094 12.3367 31.6996 12.3199 31.6934C11.2423 31.281 10.1991 30.7839 9.19995 30.2067C9.18163 30.1961 9.16622 30.1812 9.15508 30.1632C9.14394 30.1452 9.13742 30.1247 9.1361 30.1036C9.13478 30.0825 9.1387 30.0614 9.14752 30.0422C9.15633 30.0229 9.16976 30.0062 9.18661 29.9934C9.39701 29.836 9.60373 29.6737 9.80661 29.5067C9.82436 29.4923 9.84576 29.4831 9.86842 29.4802C9.89108 29.4772 9.91411 29.4807 9.93495 29.49C16.4816 32.4784 23.5683 32.4784 30.0383 29.49C30.0593 29.4803 30.0827 29.4767 30.1057 29.4797C30.1287 29.4826 30.1504 29.492 30.1683 29.5067C30.3683 29.67 30.5783 29.8367 30.7899 29.9934C30.8066 30.006 30.8199 30.0224 30.8288 30.0413C30.8377 30.0602 30.8418 30.081 30.8408 30.1018C30.8398 30.1227 30.8338 30.143 30.8232 30.161C30.8125 30.179 30.7977 30.1941 30.7799 30.205C29.7831 30.7876 28.7388 31.285 27.6583 31.6917C27.6415 31.6982 27.6262 31.7081 27.6134 31.7208C27.6007 31.7335 27.5908 31.7488 27.5843 31.7656C27.5779 31.7825 27.5751 31.8004 27.576 31.8184C27.577 31.8364 27.5817 31.854 27.5899 31.87C28.1899 33.0334 28.8766 34.14 29.6316 35.1917C29.6471 35.2131 29.669 35.2292 29.6941 35.2375C29.7192 35.2459 29.7463 35.2462 29.7716 35.2384C33.3691 34.1364 36.7521 32.4286 39.7749 30.1884C39.7897 30.178 39.802 30.1646 39.8112 30.1491C39.8204 30.1336 39.8262 30.1163 39.8283 30.0984C40.6616 21.47 38.4316 13.975 33.9133 7.33171C33.9027 7.30931 33.8843 7.29319 33.8616 7.28338ZM13.3666 25.55C11.3949 25.55 9.77161 23.7417 9.77161 21.5184C9.77161 19.2967 11.3649 17.4867 13.3666 17.4867C15.3833 17.4867 16.9933 19.3134 16.9616 21.52C16.9616 23.7417 15.3683 25.55 13.3666 25.55ZM26.6583 25.55C24.6866 25.55 23.0633 23.7417 23.0633 21.5184C23.0633 19.2967 24.6549 17.4867 26.6583 17.4867C28.6749 17.4867 30.2849 19.3134 30.2533 21.52C30.2533 23.7417 28.6766 25.55 26.6583 25.55Z" fill="#D9D9D9"/>
</g>
<defs>
<clipPath id="clip0_13_51">
<rect width="40" height="40" fill="white"/>
</clipPath>
</defs>
</svg>
