<svg width="20" height="25" viewBox="0 0 20 25" fill="none" xmlns="http://www.w3.org/2000/svg">
<path d="M10 0C7.3488 0.00308953 4.80709 1.03884 2.93241 2.88004C1.05772 4.72125 0.00314571 7.21757 0 9.82143C0 18.2251 9.09091 24.5728 9.47798 24.8387C9.63107 24.9437 9.81328 25 10 25C10.1867 25 10.3689 24.9437 10.522 24.8387C10.9091 24.5728 20 18.2251 20 9.82143C19.9969 7.21757 18.9423 4.72125 17.0676 2.88004C15.1929 1.03884 12.6512 0.00308924 10 0ZM10.0007 6.25032C10.7199 6.25032 11.4229 6.45978 12.0209 6.85222C12.6189 7.24465 13.085 7.80243 13.3602 8.45503C13.6355 9.10762 13.7075 9.82571 13.5672 10.5185C13.4268 11.2113 13.0805 11.8477 12.572 12.3471C12.0634 12.8466 11.4155 13.1868 10.7101 13.3246C10.0047 13.4624 9.27355 13.3916 8.60909 13.1213C7.94463 12.851 7.37671 12.3932 6.97714 11.8059C6.57757 11.2186 6.3643 10.5281 6.3643 9.82175C6.36429 9.35274 6.45834 8.88832 6.64108 8.45501C6.82382 8.0217 7.09167 7.62798 7.42934 7.29634C7.76701 6.9647 8.16788 6.70163 8.60907 6.52215C9.05026 6.34268 9.52313 6.25031 10.0007 6.25032Z" fill="#D9D9D9"/>
</svg>
